<svg width="88" height="30" viewBox="0 0 88 30" fill="none" xmlns="http://www.w3.org/2000/svg">
<g clip-path="url(#clip0_202_84)">
<path d="M20.2811 15.9409C20.2452 12.1448 23.3645 10.3209 23.5048 10.234C21.7491 7.6538 19.0219 7.29915 18.0505 7.25934C15.7298 7.0205 13.5208 8.6345 12.3407 8.6345C11.1606 8.6345 9.34364 7.29191 7.41878 7.33172C4.88589 7.36791 2.55088 8.81182 1.24485 11.0917C-1.38159 15.6731 0.57565 22.4765 3.14093 26.2003C4.39658 28.0205 5.88609 30.0724 7.85053 29.9964C9.743 29.9204 10.4554 28.766 12.7364 28.766C15.0175 28.766 15.6615 29.9964 17.6583 29.9602C19.6911 29.9204 20.9791 28.1001 22.224 26.2726C23.6559 24.1556 24.2496 22.111 24.2856 22.0024C24.2388 21.9843 20.3243 20.4753 20.2811 15.9409Z" fill="black"/>
<path d="M16.5287 4.79132C17.5721 3.52111 18.2736 1.75875 18.0829 0C16.5826 0.0615199 14.7657 1.00603 13.69 2.27624C12.7257 3.39807 11.8802 5.193 12.1105 6.91556C13.7763 7.04584 15.4889 6.0579 16.5287 4.79132ZM33.4386 19.6719L31.7117 24.9373H29.4918L35.144 8.20386H37.7345L43.4083 24.9373H41.1129L39.3355 19.6719H33.4386ZM38.893 17.9819L37.2668 13.1653C36.8962 12.0724 36.6515 11.0808 36.4033 10.111H36.3565C36.1082 11.1025 35.8384 12.1194 35.5182 13.1399L33.892 17.9783L38.893 17.9819ZM45.0921 16.842C45.0921 15.304 45.0453 14.0591 44.9914 12.9192H46.9414L47.0421 14.9819H47.0889C47.9776 13.5163 49.3844 12.6478 51.3344 12.6478C54.2235 12.6478 56.393 15.1049 56.393 18.7563C56.393 23.0772 53.7773 25.2087 50.9638 25.2087C49.3844 25.2087 48.0028 24.5139 47.2868 23.3233H47.24V29.8516H45.0921V16.842ZM47.2364 20.0446C47.2364 20.3703 47.2832 20.6635 47.3372 20.9385C47.7329 22.4511 49.039 23.497 50.5968 23.497C52.8923 23.497 54.2271 21.6116 54.2271 18.854C54.2271 16.4439 52.9678 14.3884 50.6724 14.3884C49.1937 14.3884 47.8121 15.456 47.3875 17.0953C47.312 17.3667 47.24 17.6924 47.24 17.9891L47.2364 20.0446ZM58.6381 16.842C58.6381 15.304 58.5913 14.0591 58.5373 12.9192H60.4874L60.5881 14.9819H60.6349C61.5235 13.5163 62.9303 12.6478 64.8804 12.6478C67.7694 12.6478 69.9389 15.1049 69.9389 18.7563C69.9389 23.0772 67.3233 25.2087 64.5098 25.2087C62.9303 25.2087 61.5487 24.5139 60.8328 23.3233H60.786V29.8516H58.6381V16.842ZM60.786 20.0446C60.786 20.3703 60.8328 20.6635 60.8867 20.9385C61.2825 22.4511 62.5885 23.497 64.1464 23.497C66.4418 23.497 67.7766 21.6116 67.7766 18.854C67.7766 16.4439 66.5174 14.3884 64.2219 14.3884C62.7432 14.3884 61.3616 15.456 60.9371 17.0953C60.8615 17.3667 60.7896 17.6924 60.7896 17.9891L60.786 20.0446ZM72.1876 7.31001H74.3607V24.9337H72.1876V7.31001ZM78.7285 19.3245C78.7753 22.2774 80.6534 23.497 82.8229 23.497C84.3772 23.497 85.3162 23.2256 86.1293 22.8782L86.4999 24.4415C85.7372 24.7889 84.4275 25.187 82.5279 25.187C78.8509 25.187 76.6526 22.7551 76.6526 19.1291C76.6526 15.503 78.7753 12.6478 82.2544 12.6478C86.1545 12.6478 87.1907 16.0965 87.1907 18.3076C87.1907 18.7563 87.1439 19.1001 87.1151 19.3245H78.7285ZM85.0967 17.7612C85.1219 16.3715 84.5283 14.2111 82.0853 14.2111C79.887 14.2111 78.9264 16.2485 78.7537 17.7612H85.0967Z" fill="black"/>
</g>
<defs>
<clipPath id="clip0_202_84">
<rect width="87.1942" height="30" fill="white"/>
</clipPath>
</defs>
</svg>
